<svg xmlns="http://www.w3.org/2000/svg" viewBox="0 0 516 429.76"><defs><style>.cls-1{fill:#f9f9f9;}</style></defs><title>dzaFichier 3</title><g id="Calque_2" data-name="Calque 2"><g id="page-3"><path class="cls-1" d="M379.81,101.2l-13.38,13.37,13.38-13.37a159.62,159.62,0,0,0-53.47-32.1,156.63,156.63,0,0,0-60.5-8.93,153.54,153.54,0,0,0-58.12,14.67A150.46,150.46,0,0,0,160.67,110,147.35,147.35,0,0,1,210.1,80.58a144.25,144.25,0,0,1,55.74-8A140.84,140.84,0,0,1,319.2,86.33a138,138,0,0,1,43,32.45h0a135.45,135.45,0,0,1,36.14,64.7c8.11.28,16.69.62,25.66,1A160.26,160.26,0,0,0,379.81,101.2Z"/><path class="cls-1" d="M379.81,328.5l-13.38-13.37,13.38,13.37a160,160,0,0,1-53.47,32.1,156.63,156.63,0,0,1-60.5,8.93,153.54,153.54,0,0,1-58.12-14.67,150.46,150.46,0,0,1-47.05-35.15,147.35,147.35,0,0,0,49.43,29.41,144.05,144.05,0,0,0,55.74,8,140.83,140.83,0,0,0,53.36-13.72,138,138,0,0,0,43-32.45h0a135.37,135.37,0,0,0,36.14-64.69c8.11-.29,16.69-.62,25.66-1A160.26,160.26,0,0,1,379.81,328.5Z"/><path class="cls-1" d="M261.24,417.19a200.51,200.51,0,0,1-76.11-18.25,197.64,197.64,0,0,1-62.29-45.34h0a194.77,194.77,0,0,1-55-109.18c-8.3-.44-16.82-.92-25.48-1.48a219,219,0,0,0,63,128.24h0a219.45,219.45,0,0,0,72.74,45,216.2,216.2,0,0,0,83.24,13.45,213.15,213.15,0,0,0,80.86-19.19,210.13,210.13,0,0,0,66.32-48,207,207,0,0,1-68.7,42.3A203.83,203.83,0,0,1,261.24,417.19Z"/><path class="cls-1" d="M261.24,12.58a200.69,200.69,0,0,0-76.11,18.24,197.67,197.67,0,0,0-62.29,45.35h0a194.72,194.72,0,0,0-55,109.17c-8.3.44-16.82.93-25.48,1.49a219,219,0,0,1,63-128.25h0a219.45,219.45,0,0,1,72.74-45A216.2,216.2,0,0,1,261.24.14a213,213,0,0,1,80.86,19.2,209.82,209.82,0,0,1,66.32,48,206.87,206.87,0,0,0-68.7-42.3A203.64,203.64,0,0,0,261.24,12.58Z"/><path class="cls-1" d="M516,214.26v1.56c-29.73,2.7-59.46,4.5-89.18,5.82q-12.46.56-24.95,1-7.42.28-14.87.52-13.41.44-26.82.77c-7.13.17-14.25.34-21.38.47q-8,.17-16.06.29-32.14.5-64.27.49H258q-64.51,0-129-2c-21.11-.71-42.22-1.56-63.33-2.7Q53.17,219.8,40.63,219,20.32,217.63,0,215.82H0v-1.56H0q20.31-1.84,40.62-3.16,12.52-.82,25.07-1.49c21.1-1.15,42.2-2,63.31-2.7q64.49-2.07,129-2h.47q49.95,0,99.89,1.21,14.33.35,28.63.8l14.86.52q12.48.47,24.94,1C456.53,209.77,486.26,211.57,516,214.26Z"/><path class="cls-1" d="M0,214.26v1.56H0v-1.56Z"/></g></g></svg>